<svg width="143" height="142" viewBox="0 0 143 142" fill="none" xmlns="http://www.w3.org/2000/svg">
<rect x="0.35498" y="0.788635" width="142.29" height="140.423" rx="38.25" fill="#6880E2"/>
<path d="M64.3618 33.8149C65.7693 31.5626 66.55 29.2142 67.0914 26.7736C67.7273 23.9071 67.8255 23.8302 70.8258 23.8282C71.8215 23.8276 72.8233 23.8987 73.8113 23.8121C75.54 23.6606 76.2508 24.5388 76.5893 26.1115C78.9559 37.1075 85.7998 43.5754 96.754 45.6864C99.7478 46.2634 102.837 45.848 105.883 45.8974C109.073 45.9491 109.9 46.728 109.901 49.843C109.905 64.8395 109.907 79.8361 109.904 94.8326C109.903 97.7909 108.965 98.6834 106.02 98.7705C101.798 98.8954 97.5651 98.4439 93.3521 99.0875C85.808 100.24 78.6867 106.789 76.9967 114.183C76.116 118.036 76.116 118.036 72.0678 118.046C71.9433 118.046 71.8189 118.047 71.6944 118.048C67.7733 118.057 67.7733 118.057 66.8308 114.366C64.5 105.239 56.3013 98.8197 46.8959 98.7724C43.5358 98.7555 40.1752 98.7917 36.8153 98.7568C34.2559 98.7302 33.1447 97.644 33.1414 95.1142C33.1217 79.931 33.1186 64.7477 33.1308 49.5646C33.1328 47.0268 34.2326 45.9879 36.792 45.8972C40.6379 45.761 44.5206 46.3178 48.3263 45.4648C55.28 43.9062 60.7529 40.2458 64.3618 33.8149ZM91.4559 56.2151C83.5514 59.5357 78.6046 65.3416 76.6879 73.7226C75.9203 77.079 75.8866 77.04 72.3442 77.0848C66.8781 77.1539 67.9048 77.0213 66.8714 72.8206C64.3141 62.426 54.9991 54.8768 44.3003 54.6319C41.9671 54.5785 41.8608 54.6603 41.8589 56.983C41.8509 66.8148 41.8447 76.6466 41.8634 86.4784C41.8707 90.3191 41.5265 90.0718 45.3519 90.0601C55.7133 90.0283 64.2406 93.7929 70.6055 102.118C70.9705 102.596 71.2614 103.195 71.9814 103.322C72.7352 103.055 73.0722 102.363 73.5085 101.771C76.2185 98.0933 79.6635 95.3196 83.7421 93.2715C88.5889 90.8376 93.7456 89.9735 99.1023 90.0705C100.528 90.0963 101.361 89.9421 101.351 88.0908C101.295 77.5767 101.37 67.0618 101.43 56.5473C101.438 55.084 100.797 54.5661 99.3833 54.6175C96.7456 54.7133 94.2014 55.2152 91.4559 56.2151ZM78.1229 54.4675C79.6582 52.9516 81.4264 51.7131 83.5896 50.2784C78.7792 47.0423 74.937 43.3281 71.8988 38.4429C68.7808 43.2976 65.0341 47.0386 60.2654 50.2368C65.0456 53.4364 68.727 57.2275 71.9861 61.8371C73.8839 59.0015 75.7187 56.6618 78.1229 54.4675Z" fill="#FFCE39"/>
</svg>
